#!OML:ASF F:\VICON\USERDATA\INSTALL\rory3\rory3.ASF
:FULLY-SPECIFIED
:DEGREES
858
root -0.129462 16.3237 -0.80725 -159.364 -5.54044 178.187
lowerback -13.8494 0.12826 -1.49854
upperback -6.52631 -0.481559 -0.247517
thorax 0.899351 -0.578086 0.512594
lowerneck -13.3395 1.14385 -1.25903
upperneck 40.0547 -4.89725 3.91355
head 16.936 -3.37983 0.59038
rclavicle -1.63252e-014 3.47873e-015
rhumerus -90.6744 41.2208 -125.125
rradius 75.0523
rwrist -98.5758
rhand -3.71294 -15.5937
rfingers 7.12502
rthumb 22.0296 -44.3591
lclavicle -1.63252e-014 3.47873e-015
lhumerus -92.1326 -34.1589 120.329
lradius 84.1989
lwrist 74.0909
lhand 11.4966 36.5177
lfingers 7.12502
lthumb 36.5444 62.6986
rfemur -24.8805 -21.0336 26.6293
rtibia 59.7968
rfoot 35.0845 -20.459
rtoes 13.8659
lfemur -37.6417 1.02507 -33.8237
ltibia 42.4102
lfoot -33.8089 19.1046
ltoes 4.2535
859
root -0.128353 16.3251 -0.805236 -159.395 -5.56568 178.193
lowerback -13.7651 0.14023 -1.50601
upperback -6.5767 -0.472064 -0.250406
thorax 0.801236 -0.57467 0.516473
lowerneck -13.2415 1.13414 -1.376
upperneck 40.075 -4.96202 4.04396
head 16.9335 -3.41778 0.657208
rclavicle 1.19737e-015 -2.88238e-015
rhumerus -90.547 41.2758 -124.822
rradius 74.8298
rwrist -97.7387
rhand -2.6626 -15.8683
rfingers 7.12502
rthumb 23.0377 -44.5114
lclavicle 1.19737e-015 -2.88238e-015
lhumerus -92.3217 -34.4267 120.372
lradius 83.9185
lwrist 73.576
lhand 12.3468 35.5971
lfingers 7.12502
lthumb 37.3486 61.5706
rfemur -24.85 -20.9659 26.6493
rtibia 59.7797
rfoot 34.8137 -20.3948
rtoes 13.4533
lfemur -37.6213 1.04611 -33.8112
ltibia 42.4082
lfoot -33.8041 19.1259
ltoes 4.21526
860
root -0.127175 16.3261 -0.801606 -159.413 -5.58941 178.152
lowerback -13.6415 0.118963 -1.55939
upperback -6.61951 -0.499298 -0.233529
thorax 0.69093 -0.587031 0.561964
lowerneck -13.1955 1.14166 -1.46963
upperneck 40.0675 -4.94122 4.08551
head 16.9198 -3.42108 0.696699
rclavicle 1.35111e-016 6.26172e-015
rhumerus -90.6267 41.5457 -124.81
rradius 74.4182
rwrist -97.052
rhand -1.56232 -15.9857
rfingers 7.12502
rthumb 24.0931 -44.4931
lclavicle 1.35111e-016 6.26172e-015
lhumerus -92.397 -34.6448 120.294
lradius 83.6171
lwrist 73.288
lhand 13.365 35.5221
lfingers 7.12502
lthumb 38.3105 61.2361
rfemur -24.822 -20.9407 26.6257
rtibia 59.7413
rfoot 34.8318 -19.9124
rtoes 12.0116
lfemur -37.6054 1.05893 -33.8584
ltibia 42.4147
lfoot -33.866 19.1371
ltoes 4.08869
861
root -0.126239 16.3225 -0.7986 -159.408 -5.54014 177.967
lowerback -13.5952 0.126256 -1.75426
upperback -6.62855 -0.466811 -0.309456
thorax 0.655146 -0.56796 0.59781
lowerneck -13.2429 1.1457 -1.38663
upperneck 40.0864 -4.93539 4.0391
head 16.9387 -3.40876 0.661798
rclavicle -5.33768e-015 -1.59028e-015
rhumerus -90.3183 41.6565 -124.482
rradius 73.8324
rwrist -96.2398
rhand -0.0549234 -16.1649
rfingers 7.12502
rthumb 25.5378 -44.4732
lclavicle -5.33768e-015 -1.59028e-015
lhumerus -92.3515 -35.0011 120.017
lradius 83.2419
lwrist 72.7926
lhand 14.5196 35.425
lfingers 7.12502
lthumb 39.3992 60.8295
rfemur -24.8025 -20.8721 26.4245
rtibia 59.7339
rfoot 34.8339 -19.6708
rtoes 11.2437
lfemur -37.5859 1.08588 -34.0854
ltibia 42.3793
lfoot -33.6505 19.3156
ltoes 3.43176
862
root -0.127382 16.3235 -0.798891 -159.427 -5.54049 177.947
lowerback -13.6012 0.142459 -1.75495
upperback -6.62019 -0.443483 -0.32901
thorax 0.66647 -0.556222 0.58095
lowerneck -13.2269 1.14495 -1.37029
upperneck 40.0778 -4.93285 4.02885
head 16.9289 -3.4059 0.655345
rclavicle -1.04968e-014 -6.4605e-015
rhumerus -89.9917 41.7075 -124.05
rradius 73.2476
rwrist -95.1338
rhand 1.66677 -16.2352
rfingers 7.12502
rthumb 27.1859 -44.2967
lclavicle -1.04968e-014 -6.4605e-015
lhumerus -92.3129 -35.3057 119.731
lradius 82.7438
lwrist 72.1313
lhand 15.6193 34.6646
lfingers 7.12502
lthumb 40.4343 59.7581
rfemur -24.7127 -20.8057 26.3759
rtibia 59.6988
rfoot 34.7573 -19.6516
rtoes 11.1019
lfemur -37.5541 1.15165 -34.1338
ltibia 42.3426
lfoot -33.4045 19.5471
ltoes 2.74298
863
root -0.126649 16.3242 -0.79767 -159.363 -5.54579 177.877
lowerback -13.6367 0.133119 -1.83467
upperback -6.63855 -0.450375 -0.344708
thorax 0.665919 -0.560242 0.608392
lowerneck -13.2029 1.13257 -1.39714
upperneck 40.0739 -4.97454 4.08449
head 16.9258 -3.42198 0.677491
rclavicle 2.74416e-015 -3.37934e-015
rhumerus -89.6925 41.7898 -123.638
rradius 72.6046
rwrist -93.6763
rhand 3.60595 -16.0921
rfingers 7.12502
rthumb 29.0394 -43.8491
lclavicle 2.74416e-015 -3.37934e-015
lhumerus -92.2137 -35.5237 119.418
lradius 81.9648
lwrist 71.5391
lhand 17.0297 33.8029
lfingers 7.12502
lthumb 41.7586 58.4733
rfemur -24.7475 -20.681 26.3287
rtibia 59.693
rfoot 34.4179 -20.1496
rtoes 12.3714
lfemur -37.5935 1.146 -34.2034
ltibia 42.282
lfoot -33.4351 19.4329
ltoes 3.41054
864
root -0.126854 16.3215 -0.796144 -159.35 -5.52191 177.786
lowerback -13.6013 0.15631 -1.9186
upperback -6.69487 -0.419591 -0.393614
thorax 0.586458 -0.54691 0.609889
lowerneck -13.1041 1.12631 -1.40695
upperneck 40.146 -5.05603 4.13273
head 16.9473 -3.46561 0.683797
rclavicle 1.79326e-014 2.38542e-015
rhumerus -89.4193 41.7821 -123.325
rradius 71.8028
rwrist -92.1146
rhand 5.3973 -15.5927
rfingers 7.12502
rthumb 30.7489 -43.0418
lclavicle 1.79326e-014 2.38542e-015
lhumerus -92.176 -35.7185 119.174
lradius 80.7569
lwrist 70.9188
lhand 19.0044 32.52
lfingers 7.12502
lthumb 43.6065 56.5481
rfemur -24.7339 -20.629 26.2391
rtibia 59.686
rfoot 34.1349 -20.4541
rtoes 13.2539
lfemur -37.5723 1.0964 -34.2882
ltibia 42.2344
lfoot -33.5969 19.2637
ltoes 4.10293
865
root -0.126784 16.3206 -0.794077 -159.337 -5.4837 177.702
lowerback -13.6721 0.163984 -2.02287
upperback -6.67028 -0.39356 -0.406176
thorax 0.648998 -0.532041 0.658279
lowerneck -13.0973 1.08783 -1.53833
upperneck 40.1648 -5.12683 4.21808
head 16.9662 -3.50659 0.732184
rclavicle 1.26834e-014 -1.68967e-015
rhumerus -88.8422 41.8662 -122.775
rradius 70.8495
rwrist -90.3007
rhand 7.29167 -15.6122
rfingers 7.12502
rthumb 32.5533 -42.7056
lclavicle 1.26834e-014 -1.68967e-015
lhumerus -91.2919 -35.9726 117.996
lradius 79.763
lwrist 69.2887
lhand 22.394 35.7242
lfingers 7.12502
lthumb 46.7584 58.4961
rfemur -24.7011 -20.6419 26.1485
rtibia 59.6957
rfoot 33.7646 -20.811
rtoes 14.66
lfemur -37.5678 1.05817 -34.3753
ltibia 42.2039
lfoot -33.5325 19.2755
ltoes 3.94424
866
root -0.124829 16.3222 -0.791106 -159.314 -5.42015 177.691
lowerback -13.8234 0.154926 -2.0846
upperback -6.5419 -0.376342 -0.384321
thorax 0.864308 -0.51741 0.715796
lowerneck -13.3021 1.04998 -1.67611
upperneck 40.1573 -5.14636 4.30575
head 17.0223 -3.5085 0.792593
rclavicle 1.12158e-014 3.18055e-015
rhumerus -87.9422 42.0688 -121.964
rradius 69.7777
rwrist -87.9008
rhand 9.69133 -15.6269
rfingers 7.12502
rthumb 34.8335 -42.2217
lclavicle 1.12158e-014 3.18055e-015
lhumerus -90.8066 -36.1007 117.483
lradius 78.4301
lwrist 68.5713
lhand 23.0371 31.071
lfingers 7.12502
lthumb 47.3531 53.5801
rfemur -24.6941 -20.5419 26.1529
rtibia 59.6869
rfoot 33.5227 -21.085
rtoes 15.516
lfemur -37.6141 0.957477 -34.3464
ltibia 42.211
lfoot -33.6821 19.1769
ltoes 4.25484
